<svg width="200" height="200" viewBox="0 0 200 200" fill="none" xmlns="http://www.w3.org/2000/svg">
<path d="M200 100C200 155.228 155.228 200 100 200C44.7715 200 0 155.228 0 100C0 44.7715 44.7715 0 100 0C155.228 0 200 44.7715 200 100Z" fill="#FCC412"/>
<path d="M52 117H57.0046V104.125H69.9364V99.9818H57.0046V92.3866H71.7381V88H52V117Z" fill="#1B3B36"/>
<path d="M52 117H57.0046V104.125H69.9364V99.9818H57.0046V92.3866H71.7381V88H52V117Z" fill="black"/>
<path d="M80.7372 92.1429H88.8647C91.4671 92.1429 93.8292 92.8739 93.8292 96.57C93.8292 99.6162 92.1076 101.2 88.9448 101.2H80.7372V92.1429ZM75.7327 117H80.7372V105.059H88.104C92.7082 105.059 93.7892 107.415 93.7892 112.735C93.7892 114.157 93.7892 115.741 94.5499 117H99.9148C98.8338 115.822 98.3534 112.735 98.3534 109.364C98.3534 104.775 95.8311 103.475 94.1095 103.231V103.15C95.0303 102.825 98.8338 101.403 98.8338 95.8389C98.8338 90.9244 95.6309 88 89.3852 88H75.7327V117Z" fill="#1B3B36"/>
<path d="M80.7372 92.1429H88.8647C91.4671 92.1429 93.8292 92.8739 93.8292 96.57C93.8292 99.6162 92.1076 101.2 88.9448 101.2H80.7372V92.1429ZM75.7327 117H80.7372V105.059H88.104C92.7082 105.059 93.7892 107.415 93.7892 112.735C93.7892 114.157 93.7892 115.741 94.5499 117H99.9148C98.8338 115.822 98.3534 112.735 98.3534 109.364C98.3534 104.775 95.8311 103.475 94.1095 103.231V103.15C95.0303 102.825 98.8338 101.403 98.8338 95.8389C98.8338 90.9244 95.6309 88 89.3852 88H75.7327V117Z" fill="black"/>
<path d="M103.923 117H124.782V112.613H108.927V104.125H123.34V99.9818H108.927V92.3866H124.501V88H103.923V117Z" fill="#1B3B36"/>
<path d="M103.923 117H124.782V112.613H108.927V104.125H123.34V99.9818H108.927V92.3866H124.501V88H103.923V117Z" fill="black"/>
<path d="M129.141 117H150V112.613H134.145V104.125H148.559V99.9818H134.145V92.3866H149.72V88H129.141V117Z" fill="#1B3B36"/>
<path d="M129.141 117H150V112.613H134.145V104.125H148.559V99.9818H134.145V92.3866H149.72V88H129.141V117Z" fill="black"/>
</svg>
